<?xml version="1.0" encoding="UTF-8" standalone="no"?>
<!-- Created with Inkscape (http://www.inkscape.org/) -->

<svg
   xmlns:dc="http://purl.org/dc/elements/1.1/"
   xmlns:cc="http://creativecommons.org/ns#"
   xmlns:rdf="http://www.w3.org/1999/02/22-rdf-syntax-ns#"
   xmlns:svg="http://www.w3.org/2000/svg"
   xmlns="http://www.w3.org/2000/svg"
   xmlns:sodipodi="http://sodipodi.sourceforge.net/DTD/sodipodi-0.dtd"
   xmlns:inkscape="http://www.inkscape.org/namespaces/inkscape"
   width="744.09448819"
   height="1052.3622047"
   id="svg3252"
   version="1.1"
   inkscape:version="0.48.3.1 r9886"
   sodipodi:docname="New document 5">
  <defs
     id="defs3254">
    <clipPath
       clipPathUnits="userSpaceOnUse"
       id="clipPath3076">
      <path
         inkscape:connector-curvature="0"
         d="m 525.6,789.74 11.28,0 0,9.96 -11.28,0 0,-9.96 z"
         id="path3078" />
    </clipPath>
    <clipPath
       clipPathUnits="userSpaceOnUse"
       id="clipPath3036">
      <path
         inkscape:connector-curvature="0"
         d="m 420.66,798.92 5.94,0 0,6.24 -5.94,0 0,-6.24 z"
         id="path3038" />
    </clipPath>
    <clipPath
       clipPathUnits="userSpaceOnUse"
       id="clipPath3018">
      <path
         inkscape:connector-curvature="0"
         d="m 371.64,789.32 9.24,0 0,4.32 -9.24,0 0,-4.32 z"
         id="path3020" />
    </clipPath>
  </defs>
  <sodipodi:namedview
     id="base"
     pagecolor="#ffffff"
     bordercolor="#666666"
     borderopacity="1.0"
     inkscape:pageopacity="0.0"
     inkscape:pageshadow="2"
     inkscape:zoom="0.7"
     inkscape:cx="434.91151"
     inkscape:cy="560.24257"
     inkscape:document-units="px"
     inkscape:current-layer="layer1"
     showgrid="false"
     inkscape:window-width="1030"
     inkscape:window-height="775"
     inkscape:window-x="678"
     inkscape:window-y="524"
     inkscape:window-maximized="0" />
  <metadata
     id="metadata3257">
    <rdf:RDF>
      <cc:Work
         rdf:about="">
        <dc:format>image/svg+xml</dc:format>
        <dc:type
           rdf:resource="http://purl.org/dc/dcmitype/StillImage" />
        <dc:title></dc:title>
      </cc:Work>
    </rdf:RDF>
  </metadata>
  <g
     inkscape:label="Layer 1"
     inkscape:groupmode="layer"
     id="layer1">
    <g
       transform="matrix(1.25,0,0,-1.25,-354.48393,1511.7693)"
       clip-path="url(#clipPath3018)"
       id="g3016">
      <path
         inkscape:connector-curvature="0"
         id="path3022"
         style="fill:#000000;fill-opacity:1;fill-rule:evenodd;stroke:none"
         d="m 379.86,793.22 c -0.781,-0.992 -1.773,-1.845 -2.88,-2.46 -1.093,-0.554 -1.505,-0.58 -2.64,-0.9 l -0.48,0 -0.42,-0.06 -0.24,0 -0.18,0.06 -0.42,0.06 -0.96,-0.42 c 3.665,-0.835 7.166,1.155 9.18,4.14 l -0.96,-0.42" />
    </g>
    <path
       inkscape:connector-curvature="0"
       d="m 130.24107,505.39433 1.125,0 -0.75,3.3 3.675,-3.3 1.425,0 -4.05,3.675 3,3.9 -1.425,0 -2.775,-3.675 -0.75,3.675 -1.05,0 1.575,-7.575"
       style="fill:#000000;fill-opacity:1;fill-rule:evenodd;stroke:none"
       id="path3024" />
    <path
       inkscape:connector-curvature="0"
       d="m 144.19107,510.11933 -3,0 2.25,-3.6 0.75,3.6 z m -6,2.85 1.275,0 1.2,-1.95 3.675,0 0.375,1.95 1.125,0 -1.65,-7.575 -1.05,0 -4.95,7.575"
       style="fill:#000000;fill-opacity:1;fill-rule:evenodd;stroke:none"
       id="path3026" />
    <path
       inkscape:connector-curvature="0"
       d="m 151.69107,505.39433 1.425,0 2.1,6.3 1.35,-6.3 1.05,0 -1.65,7.575 -1.425,0 -2.1,-6.375 -1.35,6.375 -0.975,0 1.575,-7.575"
       style="fill:#000000;fill-opacity:1;fill-rule:evenodd;stroke:none"
       id="path3028" />
    <path
       inkscape:connector-curvature="0"
       d="m 168.04107,506.29433 -2.325,0 -1.425,6.675 -1.125,0 1.425,-6.675 -2.325,0 0.225,-0.9 5.775,0 -0.225,0.9"
       style="fill:#000000;fill-opacity:1;fill-rule:evenodd;stroke:none"
       id="path3030" />
    <g
       transform="matrix(1.25,0,0,-1.25,-354.48393,1511.7693)"
       clip-path="url(#clipPath3036)"
       id="g3034">
      <path
         inkscape:connector-curvature="0"
         id="path3040"
         style="fill:#000000;fill-opacity:1;fill-rule:evenodd;stroke:none"
         d="m 421.56,801.5 c 0.113,0.655 0.038,1.003 0.42,1.62 0.154,0.508 0.651,0.727 0.84,1.02 l 0.12,0 0.12,0.06 0.06,0.06 0.18,0.06 0.24,0.12 0.24,0 0.12,0.06 0.36,0 0.18,-0.06 0.12,0 0.18,-0.06 0.12,-0.12 0.12,-0.06 c 0.792,-0.297 0.733,-2.204 0.36,-2.82 -0.174,-0.871 -1.514,-2.006 -2.52,-1.62 l -0.12,0 -0.18,0.06 -0.12,0.12 -0.18,0.06 -0.12,0.12 -0.12,0.06 -0.06,0.12 c -0.286,0.417 -0.311,0.697 -0.36,1.2 z m -0.9,0.06 0,-0.36 0.06,-0.24 0,-0.3 0.12,-0.24 0.06,-0.24 0.12,-0.18 0.12,-0.24 0.12,-0.06 c 0.471,-0.658 1.571,-0.794 2.34,-0.72 0.485,0.028 1.289,0.317 1.62,0.72 0.669,0.426 0.943,1.279 1.2,1.98 1.152,4.977 -5.69,4.613 -5.76,-0.12" />
    </g>
    <path
       inkscape:connector-curvature="0"
       d="m 184.24107,505.39433 1.425,0 2.175,6.3 1.35,-6.3 0.975,0 -1.575,7.575 -1.425,0 -2.1,-6.375 -0.075,0 -1.275,6.375 -1.05,0 1.575,-7.575"
       style="fill:#000000;fill-opacity:1;fill-rule:evenodd;stroke:none"
       id="path3042" />
    <path
       inkscape:connector-curvature="0"
       d="m 123.19107,512.89433 -1.2,0 1.65,-7.5 1.2,0 -1.65,7.5"
       style="fill:#000000;fill-opacity:1;fill-rule:evenodd;stroke:none"
       id="path3044" />
    <path
       inkscape:connector-curvature="0"
       d="m 120.04107,512.89433 -1.2,0 1.65,-7.5 1.2,0 -1.65,7.5"
       style="fill:#000000;fill-opacity:1;fill-rule:evenodd;stroke:none"
       id="path3046" />
    <path
       inkscape:connector-curvature="0"
       d="m 116.89107,512.89433 -1.2,0 1.65,-7.5 1.275,0 -1.725,7.5"
       style="fill:#000000;fill-opacity:1;fill-rule:evenodd;stroke:none"
       id="path3048" />
    <path
       inkscape:connector-curvature="0"
       d="m 113.74107,512.89433 -1.2,0 1.65,-7.5 1.2,0 -1.65,7.5"
       style="fill:#000000;fill-opacity:1;fill-rule:evenodd;stroke:none"
       id="path3050" />
    <path
       inkscape:connector-curvature="0"
       d="m 110.59107,512.89433 -1.2,0 1.65,-7.5 1.2,0 -1.65,7.5"
       style="fill:#000000;fill-opacity:1;fill-rule:evenodd;stroke:none"
       id="path3052" />
    <path
       inkscape:connector-curvature="0"
       d="m 107.51607,512.96933 -1.275,0 1.65,-7.575 1.275,0 -1.65,7.575"
       style="fill:#000000;fill-opacity:1;fill-rule:evenodd;stroke:none"
       id="path3054" />
    <path
       inkscape:connector-curvature="0"
       d="m 191.14107,521.36933 c 1.635,0.57875 2.23125,0.73875 3.975,0.675 0.68125,-0.1575 0.43125,0.0312 1.125,-0.3 0.3325,-0.12125 0.3625,-0.36875 0.525,-0.525 0.14125,-0.8475 -0.46125,-1.02125 -1.125,-1.35 -1.0675,-0.36625 -2.13875,-0.75875 -3,-1.5 -3.22875,-5.64375 4.8875,-7.36625 9.15,-5.55 l -0.825,2.775 c -1.1525,-0.4475 -2.36125,-0.72 -3.6,-0.675 -0.53875,0.13375 -1.52,0.17875 -1.575,0.9 l 0,0.375 0.075,0.15 0.15,0.075 c 0.7525,0.57875 0.515,0.31875 1.35,0.675 0.56375,0.2075 1.8275,0.725 2.325,1.125 0.74875,0.545 0.41375,0.285 0.825,0.825 0.88375,1.535 0.12,3.68125 -1.275,4.65 -2.23625,1.675 -6.38,1.21375 -8.925,0.525 l 0.825,-2.85"
       style="fill:#000000;fill-opacity:1;fill-rule:evenodd;stroke:none"
       id="path3056" />
    <path
       inkscape:connector-curvature="0"
       d="m 213.79107,517.54433 c 0.385,4.98 -5.2875,5.99125 -5.325,1.65 l 0,-0.375 0.075,-0.375 0.075,-0.375 0.075,-0.3 0.3,-0.75 0.15,-0.3 0.15,-0.3 0.75,-0.75 0.3,-0.225 0.15,-0.075 c 0.4775,-0.29125 0.5475,-0.1525 0.825,-0.3 1.62625,-0.12 2.59,0.85875 2.475,2.475 z m 4.275,0 c -0.0763,-7.9825 -14.1175,-7.055 -13.8,1.725 -0.06,4.30375 3.35625,6.01 7.35,5.475 4.1475,-0.2875 6.46625,-3.06875 6.45,-7.2"
       style="fill:#000000;fill-opacity:1;fill-rule:evenodd;stroke:none"
       id="path3058" />
    <path
       inkscape:connector-curvature="0"
       d="m 223.39107,507.04433 4.125,0 -3.525,17.475 -4.125,0 3.525,-17.475"
       style="fill:#000000;fill-opacity:1;fill-rule:evenodd;stroke:none"
       id="path3060" />
    <path
       inkscape:connector-curvature="0"
       d="m 237.94107,517.54433 c -0.0913,1.585 -0.36875,3.16875 -1.8,4.05 -1.2025,0.5725 -2.58625,0.43 -3.225,-0.825 -1.19625,-2.5975 0.9725,-6.86 4.125,-5.4 l 0,0.075 0.15,0.075 0.15,0.15 0.075,0.15 0.15,0.15 0.075,0.225 0.15,0.225 0.075,0.15 0,0.525 0.075,0.15 0,0.3 z m 4.2,0 c 0.065,-7.885 -14.00875,-7.1525 -13.8,1.725 0.085,8.77 14.86375,6.6925 13.8,-1.725"
       style="fill:#000000;fill-opacity:1;fill-rule:evenodd;stroke:none"
       id="path3062" />
    <path
       inkscape:connector-curvature="0"
       d="m 245.21607,512.36933 2.4,0 0.525,-2.55 4.35,-1.2 -0.825,3.75 2.775,0 -0.45,3 -3,0 c -0.33625,2.14625 -0.8,3.48875 -1.05,5.475 l 0,0.15 0.075,0.15 0.15,0.45 0.075,0.15 0.075,0.075 c 0.84125,0.62125 1.37875,0.31375 2.325,0 l -0.45,2.775 c -7.82125,1.35875 -6.68375,-3.525 -5.25,-9.225 l -2.175,0 0.45,-3"
       style="fill:#000000;fill-opacity:1;fill-rule:evenodd;stroke:none"
       id="path3064" />
    <path
       inkscape:connector-curvature="0"
       d="m 259.99107,507.04433 4.125,0 -1.5,7.125 0.075,0 0.15,-0.15 0.15,-0.225 0.225,-0.225 0.225,-0.15 0.15,-0.225 0.45,-0.3 0.3,-0.15 0.225,-0.15 c 1.1675,-0.53125 2.62625,-0.6525 3.825,-0.15 0.885,0.40625 1.52125,1.2575 1.8,2.175 0.1825,0.48375 0.35,1.22125 0.3,1.725 l 0,0.525 -0.075,0.6 -0.15,0.6 -0.075,0.825 -1.125,5.625 -4.275,0 1.2,-5.625 0.15,-0.975 0.075,-0.45 0,-0.45 c 0.0263,-0.625 -0.0312,-0.3475 -0.225,-0.75 l 0,-0.15 -0.075,-0.075 -0.15,-0.15 -0.15,0 c -0.39125,-0.34375 -0.41875,-0.13875 -0.75,-0.3 -0.8875,0.015 -1.75625,0.325 -2.325,1.05 -0.22875,0.3225 -0.63375,0.9675 -0.675,1.35 l -0.15,0.3 0,0.3 -0.075,0.375 -1.2,5.55 -4.125,0 3.675,-17.475"
       style="fill:#000000;fill-opacity:1;fill-rule:evenodd;stroke:none"
       id="path3066" />
    <path
       inkscape:connector-curvature="0"
       d="m 286.24107,521.36933 -0.3,1.575 -0.075,0.825 -0.15,0.75 -3.75,0 0.3,-1.95 -0.075,0 -0.45,0.525 -0.225,0.225 -0.225,0.15 -0.45,0.45 -0.3,0.15 -0.225,0.15 -0.6,0.3 c -1.185,0.34 -2.5125,0.49875 -3.675,0 -0.895,-0.4375 -1.5975,-1.29125 -1.875,-2.25 l -0.075,-0.15 0,-0.225 -0.075,-0.375 -0.075,-0.45 0,-0.975 0.075,-0.525 0.075,-0.675 0.15,-0.825 1.125,-5.7 4.2,0 -1.125,5.7 -0.075,0.45 -0.075,0.45 -0.075,0.525 0,0.825 0.075,0.15 0.075,0.225 0.075,0.15 0.075,0.075 0.15,0.075 0.075,0.15 0.15,0.075 0.15,0 0.3,0.15 0.225,0 c 0.745,0.115 1.9075,-0.4025 2.25,-1.05 l 0.225,-0.225 0.15,-0.225 0.15,-0.3 0.15,-0.3 0.075,-0.3 0.075,-0.3 0.075,-0.15 0,-0.15 0.075,-0.375 1.2,-5.625 4.125,0 -1.875,9"
       style="fill:#000000;fill-opacity:1;fill-rule:evenodd;stroke:none"
       id="path3068" />
    <path
       inkscape:connector-curvature="0"
       d="m 296.66607,512.36933 -0.45,2.55 0.075,0 c 1.015,-2.2125 3.00625,-3.435 5.4,-2.475 l -0.975,3.675 c -5.36625,-2.6325 -5.345,5.585 -6.075,8.4 l -4.05,0 1.8,-8.925 0.3,-1.575 0.075,-0.825 0.15,-0.825 3.75,0"
       style="fill:#000000;fill-opacity:1;fill-rule:evenodd;stroke:none"
       id="path3070" />
    <g
       transform="matrix(1.25,0,0,-1.25,-354.48393,1511.7693)"
       clip-path="url(#clipPath3076)"
       id="g3074">
      <path
         inkscape:connector-curvature="0"
         id="path3080"
         style="fill:#000000;fill-opacity:1;fill-rule:evenodd;stroke:none"
         d="m 527.1,796.94 0.24,1.26 0.06,0.66 0.06,0.66 3.06,0 -0.24,-1.62 c 1.224,1.545 3.239,2.292 5.1,1.5 0.822,-0.512 1.048,-0.972 1.38,-1.86 0.199,-0.457 0.096,-0.958 0.12,-1.44 l 0,-0.66 -0.12,-0.48 -0.12,-0.66 -0.84,-4.5 -3.42,0 0.9,4.5 0.18,0.78 0.06,0.36 0,0.6 c -0.031,0.249 -0.261,0.436 -0.36,0.66 l -0.12,0 -0.24,0.12 -0.06,0.06 -0.18,0 -0.12,0.06 c -0.461,-0.021 -0.929,-0.104 -1.32,-0.36 -0.402,-0.253 -0.704,-0.65 -0.9,-1.08 l -0.12,-0.24 -0.06,-0.24 -0.12,-0.24 0,-0.12 -0.06,-0.12 -0.06,-0.3 -0.9,-4.44 -3.3,0 1.5,7.14" />
    </g>
  </g>
</svg>
